<?xml version="1.0" encoding="utf-8"?>
<!DOCTYPE svg PUBLIC "-//W3C//DTD SVG 1.0//EN" "http://www.w3.org/TR/2001/REC-SVG-20010904/DTD/svg10.dtd">
<svg version="1.0" id="Layer_2" xmlns="http://www.w3.org/2000/svg" xmlns:xlink="http://www.w3.org/1999/xlink" x="0px" y="0px"
	 width="440.667px" height="182px" viewBox="0 0 440.667 182" enable-background="new 0 0 440.667 182" xml:space="preserve">
<path d="M85.735,173.583c0,0-20.312,9.8-43.797,3.125c-24.345-6.92-35.821-21.695-35.821-21.695L33.517,37.527
	c0,0,14.048,13.283,36.865,18.354c23.064,5.125,42.753,0.217,42.753,0.217L85.735,173.583z"/>
<ellipse transform="matrix(0.9789 0.2042 -0.2042 0.9789 6.7746 -15.4847)" cx="78.411" cy="25.081" rx="41.418" ry="17.237"/>
<rect x="137.333" y="24" width="16.5" height="42"/>
<rect x="166.833" y="24" width="16.5" height="42"/>
<rect x="166.833" y="129" width="16.5" height="42"/>
<rect x="138.833" y="129" width="16.5" height="42"/>
<rect x="110.333" y="129" width="16.5" height="42"/>
<g>
	<path d="M197.188,23.785l1.737,42.437l157.657-6.451l-0.003-0.075c19.779,1.847,35.255,17.53,35.255,37.804
		c0,20.699-16.127,36.882-36.5,38.172v0.063l-156.409-6.4l-1.736,42.438l158.146,6.062c44.183,0,80-36.15,80-80.333
		s-35.817-80-80-80"/>
	
		<rect x="203.949" y="135.784" transform="matrix(0.9992 0.0409 -0.0409 0.9992 6.374 -8.8516)" fill="#FFFFFF" width="31.135" height="31.136"/>
</g>
<rect x="203.949" y="28.637" transform="matrix(0.9992 -0.0409 0.0409 0.9992 -1.6237 9.0116)" fill="#FFFFFF" width="31.136" height="31.136"/>
</svg>
