<?xml version="1.0" encoding="UTF-8" standalone="no"?>
<svg
   xmlns:svg="http://www.w3.org/2000/svg"
   xmlns="http://www.w3.org/2000/svg"
   version="1.0" width="304" height="316.5"
   viewBox="0 0 304 316.5">
<path style="fill:none;stroke:#000000;stroke-width:20" 
   d="M 32.097,231.442 C 18.725,209.985 11,184.645 11,157.5 C 11,111.05709 33.61435,69.896157 68.432212,44.428033 C 91.580511,27.495812 120.12291,17.5 151,17.5 C 187.887,17.5 222,30.5 246.449,55.081" />
<polygon
   points="192.505,72.89 192.563,51.483 243.014,51.627 243.158,1.158 264.548,1.233 264.354,73.083 192.505,72.89 " />
<path
   d="M 271.688,84.833 C 285.059,106.291 292.785,131.631 292.785,158.775 C 292.785,236.095 230.104,298.775 152.785,298.775 C 115.898,298.775 81.785,285.775 57.336,261.195"
   style="fill:none;stroke:#000000;stroke-width:20" />
<polygon
   points="111.278,243.385 111.221,264.791 60.769,264.647 60.625,315.117 39.236,315.043 39.428,243.192 111.278,243.385 " />
<g style="stroke:#000000;stroke-width:5.66930008">
<path
   d="M 52.136,144.306 C 51.982,133.997 57.829,118.148 85.372,118.148 C 97.989,118.148 116.915,121.534 116.454,144.461 L 115.685,180.621 C 115.531,186.775 115.685,190.162 123.84,189.853 L 123.84,199.393 C 121.993,199.855 120.609,200.009 117.685,200.009 C 110.145,200.009 105.222,198.777 103.683,188.622 C 98.297,198.47 87.526,202.471 76.909,202.471 C 60.598,202.471 49.366,195.392 49.366,178.928 C 49.366,165.542 56.29,156.924 87.68,154.155 C 99.067,153.232 102.913,153.541 102.913,143.384 C 102.913,139.844 102.605,127.688 85.372,127.688 C 80.447,127.688 64.6,127.996 65.06,144.306 L 52.136,144.306 z M 102.913,159.386 C 98.759,162.617 94.296,162.001 85.679,163.232 C 73.678,165.079 63.367,166.003 63.367,178.465 C 63.367,187.545 69.676,192.93 78.447,192.93 C 89.064,192.93 101.528,187.852 102.605,166.002 L 102.913,159.386 z" />
<path
   d="M 156.381,91.683 L 156.381,199.393 L 142.84,199.393 L 142.84,91.683 L 156.381,91.683 z" />
<path
   d="M 234.063,199.438 L 234.008,188.314 L 233.699,188.314 C 225.853,202.009 210.006,202.471 207.234,202.471 C 184.152,202.471 181.537,184.775 181.537,173.08 L 181.537,121.225 L 195.08,121.225 L 195.08,169.079 C 195.08,188.775 201.85,192.93 211.543,192.93 C 234.316,192.93 234.008,169.387 234.008,163.847 L 234.008,121.224 L 247.549,121.224 L 247.549,199.391 L 234.063,199.438 z" />
</g></svg>