<?xml version="1.0" standalone="no"?>
<!DOCTYPE svg PUBLIC "-//W3C//DTD SVG 20010904//EN"
 "http://www.w3.org/TR/2001/REC-SVG-20010904/DTD/svg10.dtd">
<svg version="1.0" xmlns="http://www.w3.org/2000/svg"
 width="1972.000000pt" height="1326.000000pt" viewBox="0 0 1972.000000 1326.000000"
 preserveAspectRatio="xMidYMid meet">

<g transform="translate(0.000000,1326.000000) scale(0.100000,-0.100000)"
fill="#000000" stroke="none">
<path d="M5513 11137 l-92 -92 112 -121 c192 -206 576 -623 802 -869 70 -77
156 -169 189 -205 34 -36 142 -153 241 -260 99 -107 258 -280 355 -385 96
-104 249 -271 340 -369 91 -99 208 -226 261 -283 94 -101 95 -103 97 -155 3
-59 36 -542 52 -743 6 -71 28 -382 50 -690 22 -308 56 -776 75 -1040 19 -264
39 -550 45 -635 5 -85 13 -178 16 -207 l6 -51 -144 -149 c-79 -81 -206 -213
-283 -293 -126 -132 -421 -439 -744 -775 -69 -71 -172 -179 -230 -240 -58 -60
-169 -175 -246 -255 -545 -562 -990 -1029 -990 -1038 0 -13 175 -174 185 -170
5 2 82 80 171 173 240 251 690 721 929 970 208 216 484 504 700 730 63 66 210
219 325 340 116 121 239 250 274 287 35 38 67 68 71 68 4 0 10 -51 14 -112 3
-62 10 -174 16 -248 10 -134 16 -225 45 -625 8 -115 18 -240 21 -277 l7 -68
38 0 39 0 0 -200 0 -200 255 0 255 0 0 200 0 200 876 2 c575 2 878 0 883 -7 4
-5 14 -26 21 -45 67 -169 248 -344 429 -414 128 -49 313 -60 447 -26 259 67
453 244 541 495 26 74 28 91 28 235 0 149 -1 159 -31 243 -45 125 -87 190
-189 293 -77 79 -103 98 -185 138 -53 25 -104 46 -113 46 -14 0 -17 10 -16 63
2 119 3 119 98 15 109 -121 196 -214 290 -313 42 -44 128 -136 191 -205 125
-137 686 -745 761 -825 48 -52 165 -178 624 -679 149 -162 275 -295 280 -295
6 -1 55 44 110 99 l100 100 -71 72 c-39 40 -125 132 -190 204 -66 71 -234 254
-375 405 -140 150 -343 369 -449 484 -107 116 -314 338 -460 495 -502 541
-855 923 -866 939 -8 11 -9 50 -3 131 4 63 13 185 19 270 6 85 15 216 20 290
6 74 21 297 35 495 25 366 37 532 55 788 17 237 79 1132 90 1292 6 83 13 178
16 212 l6 63 386 2 387 3 0 410 0 410 -32 -3 c-18 -2 -33 1 -33 6 0 10 95 111
404 432 189 197 303 316 421 440 60 63 154 162 210 220 242 252 601 628 629
658 l31 34 -85 79 -85 79 -110 -112 c-60 -62 -166 -172 -234 -243 -69 -72
-181 -188 -250 -260 -121 -124 -499 -519 -592 -616 -24 -26 -166 -172 -315
-325 -148 -154 -292 -303 -318 -331 l-49 -53 -154 0 -155 0 6 48 c3 26 8 92
11 147 3 55 8 121 11 148 l6 47 61 0 c52 0 74 -6 136 -37 71 -36 78 -38 175
-38 92 0 107 3 166 31 193 92 269 325 168 517 -106 198 -369 258 -554 126
l-41 -30 -89 57 c-219 142 -529 275 -813 350 -109 28 -302 70 -373 80 -52 7
-54 11 -49 97 l1 27 -640 0 -640 0 0 -38 0 -38 -123 -12 c-155 -16 -359 -46
-484 -72 -53 -11 -99 -18 -101 -15 -3 3 -6 24 -6 48 l-1 42 -245 0 -245 0 -3
-132 c-2 -87 -6 -133 -13 -133 -23 0 -219 -105 -309 -165 -52 -35 -120 -89
-150 -120 -54 -54 -55 -57 -65 -133 l-10 -77 -163 0 -162 0 0 -165 0 -165 230
3 c181 2 231 0 235 -10 3 -7 14 -141 25 -298 11 -157 23 -318 26 -357 4 -45 2
-73 -4 -73 -5 0 -54 48 -108 108 -54 59 -122 132 -150 162 -28 30 -145 156
-260 280 -425 458 -479 517 -543 585 -37 39 -116 124 -176 190 -123 134 -330
358 -445 480 -157 168 -209 224 -324 350 -65 72 -128 140 -140 152 l-21 23
-92 -93z m4937 -577 l0 -80 -472 0 -473 0 1 73 c1 39 2 75 3 80 1 4 213 7 471
7 l470 0 0 -80z m-1990 -265 l0 -265 -80 0 -80 0 0 265 0 265 80 0 80 0 0
-265z m880 140 l0 -125 641 0 640 0 -3 105 c-4 125 -18 118 164 79 164 -34
349 -86 483 -135 145 -54 388 -173 498 -244 95 -62 94 -60 67 -129 l-9 -26
-1597 3 -1598 2 1 33 c1 17 2 128 2 245 l1 214 103 21 c202 43 447 78 555 81
l52 1 0 -125z m-1210 -315 l0 -161 -185 1 -185 2 0 40 c0 47 23 73 138 150 73
49 211 128 225 128 4 0 7 -72 7 -160z m3523 -497 c7 -13 -22 -367 -32 -388 -5
-11 -12 -123 -15 -250 -3 -126 -9 -242 -13 -256 -5 -15 -29 -49 -54 -77 -116
-127 -635 -662 -642 -662 -4 0 -8 84 -7 188 1 103 1 193 1 200 -1 9 -170 12
-811 12 l-810 0 0 -280 0 -280 736 0 c449 0 734 -4 732 -9 -1 -5 -54 -63 -117
-128 -248 -256 -352 -364 -490 -508 -219 -227 -393 -405 -396 -405 -5 0 -130
133 -261 275 -65 72 -184 200 -264 285 -80 86 -193 207 -251 270 -58 63 -250
270 -425 459 -609 658 -574 617 -574 653 0 18 -14 218 -30 443 -16 226 -30
422 -30 438 l0 27 1874 0 c1031 0 1877 -3 1879 -7z m695 -800 l2 -243 -285 0
-285 0 0 245 0 245 283 -2 282 -3 3 -242z m-789 -610 c-4 -48 -12 -162 -18
-253 -25 -365 -71 -1023 -81 -1150 -5 -74 -14 -200 -20 -280 -30 -433 -79
-1131 -92 -1307 -6 -90 -14 -163 -18 -163 -3 0 -163 170 -356 377 -192 207
-510 550 -706 762 -197 212 -358 388 -358 391 1 7 73 86 213 230 260 269 361
373 568 590 672 704 862 900 868 896 4 -3 4 -44 0 -93z m-3334 -205 c116 -127
280 -305 365 -397 85 -92 252 -273 370 -401 118 -129 297 -323 398 -432 101
-109 182 -203 180 -208 -2 -5 -62 -69 -133 -142 -72 -73 -239 -245 -370 -383
-380 -396 -441 -460 -591 -615 -77 -80 -158 -164 -179 -187 -20 -24 -40 -43
-44 -43 -4 0 -15 109 -24 243 -9 133 -28 397 -42 587 -14 190 -30 408 -35 485
-6 77 -26 358 -45 625 -19 267 -40 550 -45 630 -6 80 -15 206 -20 280 -12 164
-12 190 -2 189 4 0 102 -104 217 -231z m1646 -1785 c84 -93 174 -190 199 -218
25 -27 79 -85 120 -130 41 -44 152 -163 245 -265 94 -102 200 -216 236 -255
36 -38 165 -178 286 -310 121 -132 250 -272 287 -312 l66 -71 -10 -134 c-5
-73 -10 -145 -10 -159 0 -26 0 -26 -102 -32 -177 -10 -319 -73 -456 -202 -154
-145 -227 -303 -239 -518 l-6 -97 -1076 2 -1076 3 -32 440 c-17 242 -38 541
-47 664 l-17 225 89 90 c87 90 609 635 992 1036 205 215 393 410 395 410 1 0
71 -75 156 -167z m1514 -2035 c212 -46 383 -202 451 -412 53 -162 31 -348 -57
-497 -81 -138 -220 -241 -381 -284 -104 -28 -269 -18 -370 22 -154 61 -269
168 -339 318 -44 95 -59 161 -59 258 1 306 236 570 540 607 71 8 138 5 215
-12z m-2785 -973 l0 -95 -85 0 -85 0 0 95 0 95 85 0 85 0 0 -95z"/>
<path d="M11205 3889 c-151 -19 -258 -141 -259 -294 -1 -86 14 -131 63 -193
53 -67 126 -104 217 -110 103 -7 163 16 235 87 70 70 93 131 87 229 -10 181
-161 305 -343 281z"/>
</g>
</svg>
