<?xml version="1.0" standalone="no"?>
<!DOCTYPE svg PUBLIC "-//W3C//DTD SVG 20010904//EN"
 "http://www.w3.org/TR/2001/REC-SVG-20010904/DTD/svg10.dtd">
<svg version="1.0" xmlns="http://www.w3.org/2000/svg"
 width="1432.000000pt" height="1471.000000pt" viewBox="0 0 1432.000000 1471.000000"
 preserveAspectRatio="xMidYMid meet">

<g transform="translate(0.000000,1471.000000) scale(0.100000,-0.100000)"
fill="#000000" stroke="none">
<path d="M6460 12744 c-30 -2 -116 -8 -190 -14 -1637 -134 -3126 -1020 -4033
-2400 -447 -680 -729 -1444 -832 -2251 -83 -659 -43 -1331 120 -1972 94 -374
200 -663 367 -1007 213 -440 435 -780 756 -1160 107 -127 389 -414 522 -531
773 -682 1754 -1139 2755 -1283 341 -50 803 -69 1094 -47 84 7 155 11 156 9 2
-2 11 -120 20 -263 10 -143 19 -262 21 -264 3 -3 68 58 147 135 168 165 615
597 740 714 48 45 87 86 87 90 0 5 -165 133 -366 287 -201 153 -444 338 -541
412 -96 73 -177 131 -180 127 -3 -3 3 -126 14 -273 11 -147 18 -271 14 -275
-3 -3 -101 -12 -217 -18 -157 -9 -261 -9 -410 -1 -198 11 -442 36 -452 45 -3
3 -9 29 -14 58 -22 139 -519 4398 -525 4498 -10 196 19 357 88 498 90 185 236
271 440 260 83 -4 93 -8 954 -352 478 -192 886 -351 905 -353 125 -17 244 103
227 230 -13 94 -37 112 -712 542 -1022 651 -1732 1053 -2022 1146 -87 27 -298
37 -411 19 -247 -39 -476 -163 -678 -364 -169 -169 -291 -370 -358 -586 -14
-47 -125 -571 -247 -1165 -121 -594 -280 -1375 -354 -1735 -74 -360 -152 -745
-175 -854 -22 -110 -42 -201 -44 -203 -9 -9 -180 219 -304 404 -372 555 -624
1211 -722 1878 -61 412 -66 864 -14 1270 164 1283 854 2435 1914 3198 616 442
1371 740 2110 831 417 52 884 48 1278 -9 1003 -147 1943 -626 2654 -1352 l136
-140 243 243 244 244 -180 178 c-99 98 -236 225 -305 283 -850 719 -1854 1144
-2960 1254 -146 15 -640 27 -760 19z m-1890 -6990 c17 -15 38 -40 46 -57 17
-32 796 -2748 790 -2754 -6 -6 -303 95 -434 148 -169 68 -399 179 -547 264
-226 129 -533 340 -674 463 l-44 38 32 90 c18 49 161 447 318 884 156 437 297
817 311 844 53 98 140 132 202 80z"/>
<path d="M5451 11185 c-389 -73 -671 -409 -671 -797 0 -232 75 -417 237 -580
160 -163 346 -240 578 -241 148 0 223 17 360 83 284 137 456 410 457 725 0
142 -20 233 -82 360 -105 217 -297 376 -528 436 -101 26 -256 33 -351 14z"/>
<path d="M10245 9904 c-390 -393 -711 -716 -712 -718 -2 -1 115 -7 259 -14
187 -8 263 -14 269 -23 16 -26 22 -209 11 -349 -55 -697 -362 -1312 -847
-1694 -305 -241 -600 -345 -947 -334 l-150 5 58 -24 c177 -73 473 -143 684
-162 636 -59 1302 148 1829 567 116 92 317 291 393 387 179 229 308 469 398
744 63 192 99 368 115 575 8 92 15 170 17 171 2 2 119 -4 261 -12 142 -8 260
-13 263 -10 3 3 -69 106 -160 229 -91 123 -263 354 -381 513 -119 160 -311
419 -428 577 -117 158 -214 288 -217 288 -3 0 -324 -322 -715 -716z"/>
<path d="M10890 6880 c0 -4 58 -108 130 -231 l130 -223 -28 -23 c-50 -42 -216
-150 -297 -193 -236 -124 -571 -235 -831 -275 -145 -23 -388 -30 -534 -16
-613 58 -1083 331 -1314 761 -51 94 -53 93 -31 -12 73 -346 227 -683 444 -973
90 -119 322 -355 441 -446 834 -645 1863 -747 2743 -273 77 42 140 74 142 72
1 -2 61 -108 133 -237 101 -180 133 -230 138 -215 13 34 434 1138 444 1161 35
83 260 682 260 691 0 7 -2 12 -4 12 -6 0 -1726 374 -1928 419 -21 5 -38 5 -38
1z"/>
<path d="M7989 6692 c-132 -137 -213 -237 -311 -387 -378 -575 -491 -1326
-308 -2036 110 -424 316 -785 625 -1094 160 -160 334 -292 533 -405 l151 -84
-39 -72 c-111 -203 -220 -408 -217 -410 1 -2 322 62 712 142 391 79 811 164
935 189 329 66 322 65 315 84 -4 9 -47 124 -95 256 -49 132 -145 395 -215 585
-70 190 -178 486 -241 659 -63 173 -122 330 -130 350 l-15 35 -15 -29 c-8 -17
-63 -121 -120 -232 l-106 -201 -66 23 c-268 92 -596 310 -856 569 -310 309
-521 695 -611 1121 -27 124 -32 398 -10 527 28 171 89 337 169 462 20 31 32
56 27 56 -5 0 -55 -48 -112 -108z"/>
</g>
</svg>
