<?xml version="1.0" standalone="no"?>
<!DOCTYPE svg PUBLIC "-//W3C//DTD SVG 20010904//EN"
 "http://www.w3.org/TR/2001/REC-SVG-20010904/DTD/svg10.dtd">
<svg version="1.0" xmlns="http://www.w3.org/2000/svg"
 width="165.000000pt" height="180.000000pt" viewBox="0 0 165.000000 180.000000"
 preserveAspectRatio="xMidYMid meet">

<g transform="translate(0.000000,180.000000) scale(0.100000,-0.100000)"
fill="#000000" stroke="none">
<path d="M1011 1659 c-48 -118 -41 -109 -85 -101 -23 4 -102 7 -176 6 -119 -1
-143 -4 -202 -26 -137 -52 -244 -136 -337 -266 -47 -67 -114 -195 -126 -242
-3 -14 -24 -41 -46 -59 -30 -26 -39 -41 -39 -65 0 -30 3 -32 37 -34 21 -2 39
-4 40 -6 2 -1 12 -38 24 -82 40 -157 70 -231 127 -321 l34 -53 -16 -47 c-20
-58 -20 -74 0 -115 18 -37 94 -89 194 -132 36 -15 75 -32 88 -39 12 -6 45 -10
71 -10 57 1 99 27 127 79 10 19 26 34 35 34 9 0 63 5 120 11 98 10 134 21 238
72 52 26 196 164 237 227 16 25 32 47 35 50 8 7 75 150 84 180 4 14 30 48 57
76 63 65 62 88 -4 92 -34 2 -48 8 -52 20 -2 9 -12 49 -21 87 -9 39 -20 75 -25
80 -4 6 -10 23 -14 40 -4 16 -16 48 -27 72 -10 23 -19 45 -19 48 0 12 -64 99
-103 142 l-39 42 21 27 c12 15 21 32 21 39 0 7 7 18 15 25 23 19 18 36 -20 75
-48 48 -127 86 -191 92 -49 5 -54 4 -63 -18z m152 -34 c53 -25 107 -68 107
-85 0 -19 -76 -10 -130 16 -53 24 -110 69 -110 86 0 17 84 7 133 -17z m-100
-54 c59 -40 96 -57 140 -65 42 -8 46 -22 17 -54 -27 -29 -45 -28 -116 8 -94
46 -117 76 -98 124 8 21 8 21 57 -13z m-150 -55 c32 -7 60 -16 63 -19 9 -9
-24 -53 -49 -65 -12 -6 -47 -18 -77 -27 -68 -19 -116 -61 -155 -139 -25 -48
-41 -66 -96 -101 -37 -24 -81 -61 -99 -84 -19 -23 -36 -41 -39 -41 -3 0 -40
32 -80 70 -41 39 -82 70 -90 70 -9 0 -42 -23 -74 -50 -56 -48 -72 -59 -65 -42
28 57 44 88 51 97 4 5 22 32 40 60 56 87 159 180 257 230 94 50 294 69 413 41z
m107 -34 c0 -10 99 -62 117 -62 21 0 24 -19 8 -49 -20 -41 -19 -85 6 -156 14
-39 18 -70 14 -93 -5 -26 -94 -215 -109 -229 -2 -2 -16 -6 -32 -9 -50 -9 -56
-22 -24 -54 19 -19 19 -20 -30 -118 -58 -116 -74 -127 -185 -125 -84 1 -144
25 -197 78 -46 46 -90 136 -86 172 2 23 8 29 35 31 45 5 58 24 34 53 l-19 24
66 125 c90 172 124 233 143 258 16 21 98 62 126 62 29 0 92 43 104 72 11 26
29 39 29 20z m201 -119 c75 -67 158 -227 188 -363 7 -30 16 -66 21 -80 5 -14
11 -37 14 -52 5 -24 12 -28 39 -28 l32 0 -45 -43 c-84 -78 -181 -162 -190
-165 -11 -4 -47 26 -150 125 -77 75 -82 83 -59 83 36 0 53 23 45 62 -5 26 3
51 34 116 45 92 52 155 24 211 -19 38 -22 108 -5 139 15 28 15 28 52 -5z
m-808 -342 c53 -52 97 -99 97 -103 0 -4 -10 -8 -22 -8 -45 0 -52 -13 -38 -67
41 -152 140 -270 241 -287 19 -3 48 -8 64 -11 43 -7 144 11 192 35 41 19 105
77 133 118 8 12 18 22 21 22 4 0 25 -17 46 -37 36 -35 76 -70 114 -100 13 -10
19 -9 35 5 10 9 41 35 68 57 43 35 48 37 41 16 -9 -30 -75 -140 -98 -166 -10
-11 -26 -31 -34 -45 -13 -21 -79 -81 -135 -125 -25 -19 -75 -44 -134 -67 -53
-21 -76 -23 -214 -23 -133 0 -163 4 -215 22 -102 37 -164 73 -233 135 -36 32
-112 129 -112 142 0 3 -9 25 -19 49 -28 61 -40 100 -70 217 -26 105 -26 105
-59 108 -17 2 -32 5 -32 7 0 7 77 81 135 130 33 28 69 60 80 72 24 26 17 31
148 -96z m161 20 c-21 -39 -40 -71 -44 -71 -16 0 -31 30 -25 49 6 21 94 106
101 98 2 -2 -12 -36 -32 -76z m482 -298 c-7 -23 -73 -99 -79 -93 -3 3 9 35 27
72 26 57 33 65 44 54 8 -8 11 -22 8 -33z m-717 -404 c61 -56 209 -125 299
-141 45 -8 72 -17 72 -25 0 -7 -13 -27 -29 -45 -26 -30 -35 -33 -83 -33 -55 0
-88 12 -216 77 -91 47 -121 80 -122 131 0 38 14 77 28 77 4 0 27 -19 51 -41z"/>
</g>
</svg>
